<svg id="visual" viewBox="0 0 900 600" width="900" height="600" xmlns="http://www.w3.org/2000/svg" xmlns:xlink="http://www.w3.org/1999/xlink" version="1.1"><path d="M0 492L45 492L45 404L90 404L90 536L135 536L135 539L180 539L180 389L225 389L225 400L270 400L270 445L315 445L315 374L360 374L360 359L405 359L405 412L450 412L450 489L495 489L495 357L540 357L540 363L585 363L585 505L630 505L630 536L675 536L675 520L720 520L720 503L765 503L765 532L810 532L810 523L855 523L855 380L900 380L900 458L900 0L900 0L855 0L855 0L810 0L810 0L765 0L765 0L720 0L720 0L675 0L675 0L630 0L630 0L585 0L585 0L540 0L540 0L495 0L495 0L450 0L450 0L405 0L405 0L360 0L360 0L315 0L315 0L270 0L270 0L225 0L225 0L180 0L180 0L135 0L135 0L90 0L90 0L45 0L45 0L0 0Z" fill="#fcb49a"></path><path d="M0 337L45 337L45 360L90 360L90 358L135 358L135 296L180 296L180 306L225 306L225 346L270 346L270 378L315 378L315 371L360 371L360 355L405 355L405 318L450 318L450 435L495 435L495 420L540 420L540 428L585 428L585 282L630 282L630 341L675 341L675 398L720 398L720 399L765 399L765 373L810 373L810 379L855 379L855 348L900 348L900 328L900 0L900 0L855 0L855 0L810 0L810 0L765 0L765 0L720 0L720 0L675 0L675 0L630 0L630 0L585 0L585 0L540 0L540 0L495 0L495 0L450 0L450 0L405 0L405 0L360 0L360 0L315 0L315 0L270 0L270 0L225 0L225 0L180 0L180 0L135 0L135 0L90 0L90 0L45 0L45 0L0 0Z" fill="#feae8b"></path><path d="M0 361L45 361L45 265L90 265L90 300L135 300L135 222L180 222L180 267L225 267L225 317L270 317L270 276L315 276L315 281L360 281L360 218L405 218L405 363L450 363L450 358L495 358L495 374L540 374L540 290L585 290L585 215L630 215L630 324L675 324L675 351L720 351L720 274L765 274L765 288L810 288L810 213L855 213L855 363L900 363L900 253L900 0L900 0L855 0L855 0L810 0L810 0L765 0L765 0L720 0L720 0L675 0L675 0L630 0L630 0L585 0L585 0L540 0L540 0L495 0L495 0L450 0L450 0L405 0L405 0L360 0L360 0L315 0L315 0L270 0L270 0L225 0L225 0L180 0L180 0L135 0L135 0L90 0L90 0L45 0L45 0L0 0Z" fill="#ffa87a"></path><path d="M0 174L45 174L45 211L90 211L90 288L135 288L135 258L180 258L180 284L225 284L225 253L270 253L270 140L315 140L315 287L360 287L360 161L405 161L405 305L450 305L450 144L495 144L495 259L540 259L540 260L585 260L585 188L630 188L630 307L675 307L675 213L720 213L720 252L765 252L765 203L810 203L810 206L855 206L855 143L900 143L900 249L900 0L900 0L855 0L855 0L810 0L810 0L765 0L765 0L720 0L720 0L675 0L675 0L630 0L630 0L585 0L585 0L540 0L540 0L495 0L495 0L450 0L450 0L405 0L405 0L360 0L360 0L315 0L315 0L270 0L270 0L225 0L225 0L180 0L180 0L135 0L135 0L90 0L90 0L45 0L45 0L0 0Z" fill="#ffa269"></path><path d="M0 181L45 181L45 101L90 101L90 183L135 183L135 101L180 101L180 148L225 148L225 116L270 116L270 107L315 107L315 161L360 161L360 116L405 116L405 160L450 160L450 182L495 182L495 82L540 82L540 80L585 80L585 211L630 211L630 122L675 122L675 224L720 224L720 131L765 131L765 182L810 182L810 118L855 118L855 126L900 126L900 99L900 0L900 0L855 0L855 0L810 0L810 0L765 0L765 0L720 0L720 0L675 0L675 0L630 0L630 0L585 0L585 0L540 0L540 0L495 0L495 0L450 0L450 0L405 0L405 0L360 0L360 0L315 0L315 0L270 0L270 0L225 0L225 0L180 0L180 0L135 0L135 0L90 0L90 0L45 0L45 0L0 0Z" fill="#ff9d58"></path><path d="M0 0L45 0L45 88L90 88L90 72L135 72L135 5L180 5L180 74L225 74L225 82L270 82L270 133L315 133L315 6L360 6L360 5L405 5L405 123L450 123L450 81L495 81L495 109L540 109L540 33L585 33L585 28L630 28L630 71L675 71L675 137L720 137L720 135L765 135L765 43L810 43L810 118L855 118L855 71L900 71L900 71L900 0L900 0L855 0L855 0L810 0L810 0L765 0L765 0L720 0L720 0L675 0L675 0L630 0L630 0L585 0L585 0L540 0L540 0L495 0L495 0L450 0L450 0L405 0L405 0L360 0L360 0L315 0L315 0L270 0L270 0L225 0L225 0L180 0L180 0L135 0L135 0L90 0L90 0L45 0L45 0L0 0Z" fill="#ff9944"></path></svg>